HIERARCHY
ROOT joint_Root
{
	OFFSET 0.0 0.0 0.0
	CHANNELS 6 Xposition Yposition Zposition Zrotation Xrotation Yrotation 
	JOINT Hips
	{
		OFFSET -0.726466 93.3139 -2.00062
		CHANNELS 6 Xposition Yposition Zposition Zrotation Xrotation Yrotation 
		JOINT Spine
		{
			OFFSET 15.7357 0.0 0.0
			CHANNELS 6 Xposition Yposition Zposition Zrotation Xrotation Yrotation 
			JOINT Chest
			{
				OFFSET 8.98455 -0.406207 0.0
				CHANNELS 6 Xposition Yposition Zposition Zrotation Xrotation Yrotation 
				JOINT Neck
				{
					OFFSET 16.3773 0.0 0.0
					CHANNELS 6 Xposition Yposition Zposition Zrotation Xrotation Yrotation 
					JOINT Head
					{
						OFFSET 6.45672 0.0 0.0
						CHANNELS 6 Xposition Yposition Zposition Zrotation Xrotation Yrotation 
						End Site
						{
							OFFSET 0.0 0.0 0.0
						}
					}
				}
				JOINT Shoulder_L
				{
					OFFSET 12.9942 -0.242716 4.98039
					CHANNELS 6 Xposition Yposition Zposition Zrotation Xrotation Yrotation 
					JOINT UpperArm_L
					{
						OFFSET 5.34809 0.0 0.0
						CHANNELS 6 Xposition Yposition Zposition Zrotation Xrotation Yrotation 
						JOINT LowerArm_L
						{
							OFFSET 24.3286 1.87007e-05 0.0
							CHANNELS 6 Xposition Yposition Zposition Zrotation Xrotation Yrotation 
							JOINT Hand_L
							{
								OFFSET 22.2916 0.0 0.0
								CHANNELS 6 Xposition Yposition Zposition Zrotation Xrotation Yrotation 
								End Site
								{
									OFFSET 0.0 0.0 0.0
								}
							}
						}
					}
				}
				JOINT Shoulder_R
				{
					OFFSET 12.9945 -0.242716 -4.98039
					CHANNELS 6 Xposition Yposition Zposition Zrotation Xrotation Yrotation 
					JOINT UpperArm_R
					{
						OFFSET -5.34813 0.0 0.0
						CHANNELS 6 Xposition Yposition Zposition Zrotation Xrotation Yrotation 
						JOINT LowerArm_R
						{
							OFFSET -24.3289 0.000322201 0.0
							CHANNELS 6 Xposition Yposition Zposition Zrotation Xrotation Yrotation 
							JOINT Hand_R
							{
								OFFSET -22.2915 -0.000108084 0.0
								CHANNELS 6 Xposition Yposition Zposition Zrotation Xrotation Yrotation 
								End Site
								{
									OFFSET 0.0 0.0 0.0
								}
							}
						}
					}
				}
			}
		}
		JOINT UpperLeg_L
		{
			OFFSET -2.19248 -6.46944 0.0
			CHANNELS 6 Xposition Yposition Zposition Zrotation Xrotation Yrotation 
			JOINT LowerLeg_L
			{
				OFFSET 39.0811 0.0 -1.23785e-05
				CHANNELS 6 Xposition Yposition Zposition Zrotation Xrotation Yrotation 
				JOINT Foot_L
				{
					OFFSET 40.9854 0.0 -1.26872e-05
					CHANNELS 6 Xposition Yposition Zposition Zrotation Xrotation Yrotation 
					JOINT Toes_L
					{
						OFFSET 11.7543 0.0 0.0
						CHANNELS 6 Xposition Yposition Zposition Zrotation Xrotation Yrotation 
						End Site
						{
							OFFSET 0.0 0.0 0.0
						}
					}
				}
			}
		}
		JOINT UpperLeg_R
		{
			OFFSET -2.19251 6.46944 0.0
			CHANNELS 6 Xposition Yposition Zposition Zrotation Xrotation Yrotation 
			JOINT LowerLeg_R
			{
				OFFSET -39.0811 -0.00228153 -0.0401928
				CHANNELS 6 Xposition Yposition Zposition Zrotation Xrotation Yrotation 
				JOINT Foot_R
				{
					OFFSET -40.9854 0.0 0.0
					CHANNELS 6 Xposition Yposition Zposition Zrotation Xrotation Yrotation 
					JOINT Toes_R
					{
						OFFSET -11.7543 0.0 0.0
						CHANNELS 6 Xposition Yposition Zposition Zrotation Xrotation Yrotation 
						End Site
						{
							OFFSET 0.0 0.0 0.0
						}
					}
				}
			}
		}
	}
}
MOTION
Frames:	6
Frame Time:	0.0333333
0.000000 0.000000 0.000000 0.000000 0.000000 -0.000000 -6.238400 91.320300 -516.883000 93.113500 -8.030100 -1.696540 15.735700 0.000005 -0.000001 117.414000 83.815500 -117.705000 8.984550 -0.406207 -0.000000 3.242350 5.700170 -0.742039 16.377300 -0.000001 -0.000001 -0.152484 -0.998123 2.629400 6.456720 -0.000001 -0.000000 2.634410 -2.522960 -5.266120 12.994200 -0.242716 4.980390 -89.441300 -1.481490 -69.334100 5.348090 -0.000007 -0.000001 -76.808500 19.497100 6.567530 24.328600 0.000019 0.000005 4.667720 16.308600 -16.213000 22.291600 -0.000001 0.000005 3.677540 5.416710 -3.492000 12.994500 -0.242716 -4.980390 88.400700 6.322250 -75.772800 -5.348130 -0.000001 -0.000004 -52.442500 30.943100 -37.805300 -24.328900 0.000322 -0.000009 4.114750 5.550830 -36.646500 -22.291500 -0.000108 -0.000004 13.467500 5.425220 -3.775940 -2.192480 -6.469440 -0.000000 -178.026000 -8.642810 -28.496200 39.081100 -0.000007 -0.000012 0.026710 -0.054468 26.121600 40.985400 -0.000006 -0.000013 -0.277092 -1.023250 -53.947600 11.754300 -0.000000 0.000003 -0.005030 -0.061767 -19.089900 -2.192510 6.469440 -0.000001 173.376000 16.771100 -172.582000 -39.081100 -0.002282 -0.040193 -0.023590 0.093152 16.117600 -40.985400 0.000008 0.000006 3.829540 8.913200 -69.699800 -11.754300 -0.000006 -0.000006 -0.009772 -0.101923 -20.725500
0.000000 0.000000 0.000000 0.000000 0.000000 -0.000000 -5.795660 90.876200 -514.648000 92.748600 -8.432360 -1.942770 15.735700 0.000005 -0.000001 120.116000 83.795200 -120.296000 8.984550 -0.406207 -0.000000 2.993830 6.227710 -0.523313 16.377300 -0.000001 -0.000001 -0.390115 -0.812608 2.567810 6.456720 -0.000001 -0.000000 2.183260 -2.540700 -5.307190 12.994200 -0.242716 4.980390 -89.405900 -1.560070 -69.148700 5.348090 -0.000007 -0.000001 -76.863300 14.636100 7.504300 24.328600 0.000019 0.000005 3.420770 17.621300 -11.170000 22.291600 -0.000001 0.000005 5.197350 5.365650 -1.855940 12.994500 -0.242716 -4.980390 88.453100 6.272420 -76.116000 -5.348130 -0.000001 -0.000004 -52.015300 28.866200 -39.384900 -24.328900 0.000322 -0.000009 3.977380 5.685660 -35.069400 -22.291500 -0.000108 -0.000004 14.139700 5.422120 -3.670710 -2.192480 -6.469440 -0.000000 -179.124000 -10.117500 -28.907200 39.081100 -0.000007 -0.000012 0.017872 -0.049015 20.033000 40.985400 -0.000006 -0.000013 -1.070720 0.042656 -52.335500 11.754300 -0.000000 0.000003 -0.004712 -0.058664 -18.963500 -2.192510 6.469440 -0.000001 172.541000 16.746300 -171.683000 -39.081100 -0.002282 -0.040193 -0.030992 0.113118 16.877300 -40.985400 0.000008 0.000006 2.868420 9.976400 -69.810900 -11.754300 -0.000006 -0.000006 -0.012950 -0.124498 -21.649700
0.000000 0.000000 0.000000 0.000000 0.000000 -0.000000 -5.204930 90.382800 -512.038000 92.337400 -9.053980 -2.255210 15.735700 0.000005 -0.000001 123.160000 83.796300 -123.225000 8.984550 -0.406207 -0.000000 2.641480 6.783550 -0.286560 16.377300 -0.000001 -0.000001 -0.628114 -0.576560 2.524350 6.456720 -0.000001 -0.000000 1.805190 -2.404760 -5.441130 12.994200 -0.242716 4.980390 -89.355400 -1.675370 -68.953200 5.348090 -0.000007 -0.000001 -76.621500 11.047400 8.395450 24.328600 0.000019 0.000005 2.407090 18.479600 -7.554250 22.291600 -0.000001 0.000005 6.196220 5.308480 -0.167115 12.994500 -0.242716 -4.980390 88.477800 6.250640 -76.284500 -5.348130 -0.000001 -0.000004 -52.007500 27.320100 -40.209300 -24.328900 0.000322 -0.000009 3.821160 5.954940 -32.780700 -22.291500 -0.000108 -0.000004 14.615300 5.417080 -3.501080 -2.192480 -6.469440 -0.000000 179.211000 -12.204500 -29.400700 39.081100 -0.000007 -0.000012 0.012025 -0.041521 16.151900 40.985400 -0.000006 -0.000013 -1.467030 -0.617627 -52.773500 11.754300 -0.000000 0.000003 -0.003772 -0.049058 -18.572200 -2.192510 6.469440 -0.000001 171.588000 16.322400 -170.995000 -39.081100 -0.002282 -0.040193 -0.037619 0.124645 18.184600 -40.985400 0.000008 0.000006 2.030140 10.968200 -69.652300 -11.754300 -0.000006 -0.000006 -0.020185 -0.168311 -23.450000
0.000000 0.000000 0.000000 0.000000 0.000000 -0.000000 -4.443780 89.899700 -508.962000 92.027400 -9.916830 -2.354610 15.735700 0.000005 -0.000001 125.819000 83.735400 -125.826000 8.984550 -0.406207 -0.000000 2.412520 7.326980 -0.168812 16.377300 -0.000001 -0.000001 -0.926169 -0.256173 2.500430 6.456720 -0.000001 -0.000000 1.460060 -2.154340 -5.488280 12.994200 -0.242716 4.980390 -89.311500 -1.780080 -68.851300 5.348090 -0.000007 -0.000001 -76.428400 9.311780 9.200780 24.328600 0.000019 0.000005 1.799110 19.718400 -5.318720 22.291600 -0.000001 0.000005 7.138920 5.260950 1.140780 12.994500 -0.242716 -4.980390 88.476700 6.341290 -76.462400 -5.348130 -0.000001 -0.000004 -52.456500 26.154500 -40.060700 -24.328900 0.000322 -0.000009 3.746390 6.469730 -30.169500 -22.291500 -0.000108 -0.000004 14.888300 5.409690 -3.254880 -2.192480 -6.469440 -0.000000 177.197000 -14.593300 -30.076000 39.081100 -0.000007 -0.000012 0.010412 -0.037250 15.617000 40.985400 -0.000006 -0.000013 -1.445010 -2.503690 -52.760900 11.754300 -0.000000 0.000003 -0.004850 -0.060016 -19.018600 -2.192510 6.469440 -0.000001 170.334000 15.349300 -170.298000 -39.081100 -0.002282 -0.040193 -0.039802 0.118218 20.040800 -40.985400 0.000008 0.000006 1.334430 11.756300 -68.977500 -11.754300 -0.000006 -0.000006 -0.033208 -0.231805 -26.077800
0.000000 0.000000 0.000000 0.000000 0.000000 -0.000000 -3.540810 89.448400 -505.361000 91.930600 -10.833400 -2.263480 15.735700 0.000005 -0.000001 127.639000 83.681400 -127.688000 8.984550 -0.406207 -0.000000 2.263890 7.714130 -0.249647 16.377300 -0.000001 -0.000001 -1.166020 0.054031 2.607660 6.456720 -0.000001 -0.000000 1.053740 -1.854330 -5.432950 12.994200 -0.242716 4.980390 -89.288800 -1.828800 -68.743700 5.348090 -0.000007 -0.000001 -76.527700 9.268140 9.807810 24.328600 0.000019 0.000005 1.527090 20.458400 -4.361490 22.291600 -0.000001 0.000005 7.422220 5.239970 1.696300 12.994500 -0.242716 -4.980390 88.432500 6.597860 -76.604300 -5.348130 -0.000001 -0.000004 -53.014700 25.619400 -38.945000 -24.328900 0.000322 -0.000009 3.533310 6.801240 -27.544100 -22.291500 -0.000108 -0.000004 15.164700 5.400550 -2.955250 -2.192480 -6.469440 -0.000000 175.372000 -15.872500 -30.785300 39.081100 -0.000007 -0.000012 0.007645 -0.022357 18.879500 40.985400 -0.000006 -0.000013 1.906130 -3.622540 -53.870000 11.754300 -0.000000 0.000003 -0.005772 -0.068758 -19.375000 -2.192510 6.469440 -0.000001 168.666000 14.033300 -169.523000 -39.081100 -0.002282 -0.040193 -0.034645 0.092929 22.220200 -40.985400 0.000008 0.000006 0.484529 12.465100 -67.345600 -11.754300 -0.000006 -0.000006 -0.058656 -0.327381 -30.088200
0.000000 0.000000 0.000000 0.000000 0.000000 -0.000000 -2.565840 89.122900 -501.353000 92.434200 -11.751600 -2.219820 15.735700 0.000005 -0.000001 128.936000 83.793200 -129.255000 8.984550 -0.406207 -0.000000 1.929610 7.812730 -0.769048 16.377300 -0.000001 -0.000001 -1.326530 0.305575 3.008520 6.456720 -0.000001 -0.000000 0.887005 -1.483420 -5.448170 12.994200 -0.242716 4.980390 -89.433100 -1.441830 -68.534200 5.348090 -0.000007 -0.000001 -76.358800 9.752140 10.187800 24.328600 0.000019 0.000005 1.585730 21.229400 -4.371690 22.291600 -0.000001 0.000005 7.378150 5.242480 1.630480 12.994500 -0.242716 -4.980390 88.273700 7.322730 -76.696000 -5.348130 -0.000001 -0.000004 -53.178600 25.840400 -36.886500 -24.328900 0.000322 -0.000009 3.012860 6.475280 -25.026200 -22.291500 -0.000108 -0.000004 15.056100 5.401120 -2.974070 -2.192480 -6.469440 -0.000000 175.165000 -14.020700 -31.527300 39.081100 -0.000007 -0.000012 0.008826 -0.020070 23.737500 40.985400 -0.000006 -0.000013 3.182390 -4.488270 -49.795400 11.754300 -0.000000 0.000003 -0.007128 -0.080770 -19.865000 -2.192510 6.469440 -0.000001 166.246000 12.806900 -169.234000 -39.081100 -0.002282 -0.040193 -0.016377 0.042390 24.913300 -40.985400 0.000008 0.000006 -0.337257 13.695400 -64.276900 -11.754300 -0.000006 -0.000006 -0.106282 -0.459881 -35.798700
